<mxfile host="app.diagrams.net" agent="Mozilla/5.0 (Windows NT 10.0; Win64; x64) AppleWebKit/537.36 (KHTML, like Gecko) Chrome/131.0.0.0 Safari/537.36" version="24.8.6">
  <diagram name="Page-1" id="fvH-GBh8lEM_DRjrQgWB">
    <mxGraphModel dx="1886" dy="-363" grid="1" gridSize="10" guides="1" tooltips="1" connect="1" arrows="1" fold="1" page="1" pageScale="1" pageWidth="827" pageHeight="1169" math="0" shadow="0">
      <root>
        <mxCell id="0" />
        <mxCell id="1" parent="0" />
        <mxCell id="hqMTRgyAmCMBQqR6_Q0m-12" value="&lt;div&gt;RX:&lt;/div&gt;" style="text;html=1;align=center;verticalAlign=middle;resizable=0;points=[];autosize=1;strokeColor=none;fillColor=none;" vertex="1" parent="1">
          <mxGeometry x="10" y="1169" width="40" height="30" as="geometry" />
        </mxCell>
        <mxCell id="hqMTRgyAmCMBQqR6_Q0m-68" value="TX:" style="text;html=1;align=center;verticalAlign=middle;resizable=0;points=[];autosize=1;strokeColor=none;fillColor=none;" vertex="1" parent="1">
          <mxGeometry x="20" y="1944" width="40" height="30" as="geometry" />
        </mxCell>
        <mxCell id="hqMTRgyAmCMBQqR6_Q0m-73" value="" style="edgeStyle=orthogonalEdgeStyle;rounded=0;orthogonalLoop=1;jettySize=auto;html=1;entryX=0;entryY=0.5;entryDx=0;entryDy=0;" edge="1" parent="1" source="hqMTRgyAmCMBQqR6_Q0m-70" target="hqMTRgyAmCMBQqR6_Q0m-117">
          <mxGeometry relative="1" as="geometry" />
        </mxCell>
        <mxCell id="hqMTRgyAmCMBQqR6_Q0m-111" value="yes" style="edgeLabel;html=1;align=center;verticalAlign=middle;resizable=0;points=[];" vertex="1" connectable="0" parent="hqMTRgyAmCMBQqR6_Q0m-73">
          <mxGeometry x="0.0176" y="-2" relative="1" as="geometry">
            <mxPoint as="offset" />
          </mxGeometry>
        </mxCell>
        <mxCell id="hqMTRgyAmCMBQqR6_Q0m-75" value="" style="edgeStyle=orthogonalEdgeStyle;rounded=0;orthogonalLoop=1;jettySize=auto;html=1;" edge="1" parent="1" source="hqMTRgyAmCMBQqR6_Q0m-70" target="hqMTRgyAmCMBQqR6_Q0m-74">
          <mxGeometry relative="1" as="geometry" />
        </mxCell>
        <mxCell id="hqMTRgyAmCMBQqR6_Q0m-112" value="no" style="edgeLabel;html=1;align=center;verticalAlign=middle;resizable=0;points=[];" vertex="1" connectable="0" parent="hqMTRgyAmCMBQqR6_Q0m-75">
          <mxGeometry x="-0.4" y="-3" relative="1" as="geometry">
            <mxPoint as="offset" />
          </mxGeometry>
        </mxCell>
        <mxCell id="hqMTRgyAmCMBQqR6_Q0m-70" value="&lt;span style=&quot;font-size: 14px;&quot;&gt;IDLE&lt;/span&gt;" style="rhombus;whiteSpace=wrap;html=1;" vertex="1" parent="1">
          <mxGeometry x="150" y="1979" width="176.5" height="190" as="geometry" />
        </mxCell>
        <mxCell id="hqMTRgyAmCMBQqR6_Q0m-72" value="END" style="whiteSpace=wrap;html=1;" vertex="1" parent="1">
          <mxGeometry x="679" y="2044" width="120" height="60" as="geometry" />
        </mxCell>
        <mxCell id="hqMTRgyAmCMBQqR6_Q0m-77" value="" style="edgeStyle=orthogonalEdgeStyle;rounded=0;orthogonalLoop=1;jettySize=auto;html=1;" edge="1" parent="1" source="hqMTRgyAmCMBQqR6_Q0m-74" target="hqMTRgyAmCMBQqR6_Q0m-76">
          <mxGeometry relative="1" as="geometry" />
        </mxCell>
        <mxCell id="hqMTRgyAmCMBQqR6_Q0m-78" value="no" style="edgeLabel;html=1;align=center;verticalAlign=middle;resizable=0;points=[];" vertex="1" connectable="0" parent="hqMTRgyAmCMBQqR6_Q0m-77">
          <mxGeometry x="0.136" relative="1" as="geometry">
            <mxPoint as="offset" />
          </mxGeometry>
        </mxCell>
        <mxCell id="hqMTRgyAmCMBQqR6_Q0m-80" value="" style="edgeStyle=orthogonalEdgeStyle;rounded=0;orthogonalLoop=1;jettySize=auto;html=1;" edge="1" parent="1" source="hqMTRgyAmCMBQqR6_Q0m-74" target="hqMTRgyAmCMBQqR6_Q0m-79">
          <mxGeometry relative="1" as="geometry" />
        </mxCell>
        <mxCell id="hqMTRgyAmCMBQqR6_Q0m-84" value="yes" style="edgeLabel;html=1;align=center;verticalAlign=middle;resizable=0;points=[];" vertex="1" connectable="0" parent="hqMTRgyAmCMBQqR6_Q0m-80">
          <mxGeometry x="-0.1583" y="-1" relative="1" as="geometry">
            <mxPoint as="offset" />
          </mxGeometry>
        </mxCell>
        <mxCell id="hqMTRgyAmCMBQqR6_Q0m-74" value="&lt;span style=&quot;font-size: 14px;&quot;&gt;current_time-ref_time&amp;gt;=half_bit_time&lt;/span&gt;" style="rhombus;whiteSpace=wrap;html=1;" vertex="1" parent="1">
          <mxGeometry x="140" y="2259" width="196.5" height="210" as="geometry" />
        </mxCell>
        <mxCell id="hqMTRgyAmCMBQqR6_Q0m-76" value="END" style="whiteSpace=wrap;html=1;" vertex="1" parent="1">
          <mxGeometry x="454.75" y="2334" width="120" height="60" as="geometry" />
        </mxCell>
        <mxCell id="hqMTRgyAmCMBQqR6_Q0m-82" value="" style="edgeStyle=orthogonalEdgeStyle;rounded=0;orthogonalLoop=1;jettySize=auto;html=1;entryX=0;entryY=0.5;entryDx=0;entryDy=0;" edge="1" parent="1" source="hqMTRgyAmCMBQqR6_Q0m-79" target="hqMTRgyAmCMBQqR6_Q0m-88">
          <mxGeometry relative="1" as="geometry">
            <mxPoint x="454.75" y="2654" as="targetPoint" />
          </mxGeometry>
        </mxCell>
        <mxCell id="hqMTRgyAmCMBQqR6_Q0m-83" value="0" style="edgeLabel;html=1;align=center;verticalAlign=middle;resizable=0;points=[];" vertex="1" connectable="0" parent="hqMTRgyAmCMBQqR6_Q0m-82">
          <mxGeometry x="0.0514" y="-2" relative="1" as="geometry">
            <mxPoint as="offset" />
          </mxGeometry>
        </mxCell>
        <mxCell id="hqMTRgyAmCMBQqR6_Q0m-96" value="" style="edgeStyle=orthogonalEdgeStyle;rounded=0;orthogonalLoop=1;jettySize=auto;html=1;entryX=0.5;entryY=0;entryDx=0;entryDy=0;" edge="1" parent="1" source="hqMTRgyAmCMBQqR6_Q0m-79" target="hqMTRgyAmCMBQqR6_Q0m-98">
          <mxGeometry relative="1" as="geometry">
            <mxPoint x="238.25" y="3249" as="targetPoint" />
          </mxGeometry>
        </mxCell>
        <mxCell id="hqMTRgyAmCMBQqR6_Q0m-97" value="1" style="edgeLabel;html=1;align=center;verticalAlign=middle;resizable=0;points=[];" vertex="1" connectable="0" parent="hqMTRgyAmCMBQqR6_Q0m-96">
          <mxGeometry x="-0.3947" y="2" relative="1" as="geometry">
            <mxPoint as="offset" />
          </mxGeometry>
        </mxCell>
        <mxCell id="hqMTRgyAmCMBQqR6_Q0m-79" value="&lt;span style=&quot;font-size: 14px;&quot;&gt;last state of clock&lt;/span&gt;" style="rhombus;whiteSpace=wrap;html=1;" vertex="1" parent="1">
          <mxGeometry x="140" y="2534" width="196.5" height="210" as="geometry" />
        </mxCell>
        <mxCell id="hqMTRgyAmCMBQqR6_Q0m-85" style="edgeStyle=orthogonalEdgeStyle;rounded=0;orthogonalLoop=1;jettySize=auto;html=1;entryX=0.5;entryY=0;entryDx=0;entryDy=0;" edge="1" parent="1" source="hqMTRgyAmCMBQqR6_Q0m-86" target="hqMTRgyAmCMBQqR6_Q0m-128">
          <mxGeometry relative="1" as="geometry">
            <mxPoint x="584" y="2849" as="targetPoint" />
          </mxGeometry>
        </mxCell>
        <mxCell id="hqMTRgyAmCMBQqR6_Q0m-86" value="data_pin=bitread(data,counter)" style="rounded=0;whiteSpace=wrap;html=1;" vertex="1" parent="1">
          <mxGeometry x="496" y="2729" width="176" height="60" as="geometry" />
        </mxCell>
        <mxCell id="hqMTRgyAmCMBQqR6_Q0m-87" style="edgeStyle=orthogonalEdgeStyle;rounded=0;orthogonalLoop=1;jettySize=auto;html=1;entryX=0.5;entryY=0;entryDx=0;entryDy=0;" edge="1" parent="1" source="hqMTRgyAmCMBQqR6_Q0m-88" target="hqMTRgyAmCMBQqR6_Q0m-86">
          <mxGeometry relative="1" as="geometry" />
        </mxCell>
        <mxCell id="hqMTRgyAmCMBQqR6_Q0m-88" value="set clock line up" style="whiteSpace=wrap;html=1;" vertex="1" parent="1">
          <mxGeometry x="524" y="2609" width="120" height="60" as="geometry" />
        </mxCell>
        <mxCell id="hqMTRgyAmCMBQqR6_Q0m-89" value="" style="edgeStyle=orthogonalEdgeStyle;rounded=0;orthogonalLoop=1;jettySize=auto;html=1;exitX=0.5;exitY=1;exitDx=0;exitDy=0;entryX=0.463;entryY=0;entryDx=0;entryDy=0;entryPerimeter=0;" edge="1" parent="1" source="hqMTRgyAmCMBQqR6_Q0m-128" target="hqMTRgyAmCMBQqR6_Q0m-92">
          <mxGeometry relative="1" as="geometry">
            <mxPoint x="584" y="2929" as="sourcePoint" />
            <Array as="points" />
          </mxGeometry>
        </mxCell>
        <mxCell id="hqMTRgyAmCMBQqR6_Q0m-94" value="" style="edgeStyle=orthogonalEdgeStyle;rounded=0;orthogonalLoop=1;jettySize=auto;html=1;entryX=0.5;entryY=0;entryDx=0;entryDy=0;" edge="1" parent="1" source="hqMTRgyAmCMBQqR6_Q0m-92" target="hqMTRgyAmCMBQqR6_Q0m-127">
          <mxGeometry relative="1" as="geometry" />
        </mxCell>
        <mxCell id="hqMTRgyAmCMBQqR6_Q0m-92" value="clock=1" style="whiteSpace=wrap;html=1;" vertex="1" parent="1">
          <mxGeometry x="531" y="2979" width="116" height="50" as="geometry" />
        </mxCell>
        <mxCell id="hqMTRgyAmCMBQqR6_Q0m-131" style="edgeStyle=orthogonalEdgeStyle;rounded=0;orthogonalLoop=1;jettySize=auto;html=1;entryX=0.5;entryY=0;entryDx=0;entryDy=0;" edge="1" parent="1" source="hqMTRgyAmCMBQqR6_Q0m-98" target="hqMTRgyAmCMBQqR6_Q0m-130">
          <mxGeometry relative="1" as="geometry" />
        </mxCell>
        <mxCell id="hqMTRgyAmCMBQqR6_Q0m-98" value="&lt;div&gt;set clock line down&lt;/div&gt;" style="rounded=0;whiteSpace=wrap;html=1;" vertex="1" parent="1">
          <mxGeometry x="178.25" y="2819" width="120" height="60" as="geometry" />
        </mxCell>
        <mxCell id="hqMTRgyAmCMBQqR6_Q0m-132" style="edgeStyle=orthogonalEdgeStyle;rounded=0;orthogonalLoop=1;jettySize=auto;html=1;entryX=0;entryY=0.5;entryDx=0;entryDy=0;" edge="1" parent="1" source="hqMTRgyAmCMBQqR6_Q0m-100" target="hqMTRgyAmCMBQqR6_Q0m-105">
          <mxGeometry relative="1" as="geometry" />
        </mxCell>
        <mxCell id="hqMTRgyAmCMBQqR6_Q0m-100" value="ref_time=cirrent_time" style="whiteSpace=wrap;html=1;" vertex="1" parent="1">
          <mxGeometry x="360" y="3279" width="120" height="60" as="geometry" />
        </mxCell>
        <mxCell id="hqMTRgyAmCMBQqR6_Q0m-104" value="" style="edgeStyle=orthogonalEdgeStyle;rounded=0;orthogonalLoop=1;jettySize=auto;html=1;exitX=0.5;exitY=1;exitDx=0;exitDy=0;" edge="1" parent="1" source="hqMTRgyAmCMBQqR6_Q0m-130" target="hqMTRgyAmCMBQqR6_Q0m-103">
          <mxGeometry relative="1" as="geometry">
            <mxPoint x="238.25" y="3169" as="sourcePoint" />
          </mxGeometry>
        </mxCell>
        <mxCell id="hqMTRgyAmCMBQqR6_Q0m-106" value="no" style="edgeStyle=orthogonalEdgeStyle;rounded=0;orthogonalLoop=1;jettySize=auto;html=1;entryX=0.5;entryY=0;entryDx=0;entryDy=0;" edge="1" parent="1" source="hqMTRgyAmCMBQqR6_Q0m-103" target="hqMTRgyAmCMBQqR6_Q0m-100">
          <mxGeometry relative="1" as="geometry">
            <Array as="points">
              <mxPoint x="420" y="3099" />
            </Array>
          </mxGeometry>
        </mxCell>
        <mxCell id="hqMTRgyAmCMBQqR6_Q0m-108" value="yes" style="edgeStyle=orthogonalEdgeStyle;rounded=0;orthogonalLoop=1;jettySize=auto;html=1;" edge="1" parent="1" source="hqMTRgyAmCMBQqR6_Q0m-103" target="hqMTRgyAmCMBQqR6_Q0m-107">
          <mxGeometry relative="1" as="geometry" />
        </mxCell>
        <mxCell id="hqMTRgyAmCMBQqR6_Q0m-103" value="counter==8" style="rhombus;whiteSpace=wrap;html=1;rounded=0;" vertex="1" parent="1">
          <mxGeometry x="178.25" y="3039" width="120" height="120" as="geometry" />
        </mxCell>
        <mxCell id="hqMTRgyAmCMBQqR6_Q0m-105" value="END" style="whiteSpace=wrap;html=1;rounded=0;" vertex="1" parent="1">
          <mxGeometry x="529" y="3279" width="120" height="60" as="geometry" />
        </mxCell>
        <mxCell id="hqMTRgyAmCMBQqR6_Q0m-109" style="edgeStyle=orthogonalEdgeStyle;rounded=0;orthogonalLoop=1;jettySize=auto;html=1;entryX=0;entryY=0.5;entryDx=0;entryDy=0;" edge="1" parent="1" source="hqMTRgyAmCMBQqR6_Q0m-107" target="hqMTRgyAmCMBQqR6_Q0m-113">
          <mxGeometry relative="1" as="geometry">
            <mxPoint x="440" y="3400" as="targetPoint" />
          </mxGeometry>
        </mxCell>
        <mxCell id="hqMTRgyAmCMBQqR6_Q0m-107" value="&lt;div&gt;counter = 0&lt;/div&gt;" style="whiteSpace=wrap;html=1;rounded=0;" vertex="1" parent="1">
          <mxGeometry x="178.25" y="3370" width="120" height="60" as="geometry" />
        </mxCell>
        <mxCell id="hqMTRgyAmCMBQqR6_Q0m-116" value="" style="edgeStyle=orthogonalEdgeStyle;rounded=0;orthogonalLoop=1;jettySize=auto;html=1;entryX=0.5;entryY=1;entryDx=0;entryDy=0;" edge="1" parent="1" source="hqMTRgyAmCMBQqR6_Q0m-113" target="hqMTRgyAmCMBQqR6_Q0m-100">
          <mxGeometry relative="1" as="geometry">
            <mxPoint x="531" y="3499" as="targetPoint" />
            <Array as="points">
              <mxPoint x="420" y="3399" />
              <mxPoint x="420" y="3399" />
            </Array>
          </mxGeometry>
        </mxCell>
        <mxCell id="hqMTRgyAmCMBQqR6_Q0m-113" value="IDLE=1" style="whiteSpace=wrap;html=1;" vertex="1" parent="1">
          <mxGeometry x="360" y="3370" width="120" height="60" as="geometry" />
        </mxCell>
        <mxCell id="hqMTRgyAmCMBQqR6_Q0m-118" style="edgeStyle=orthogonalEdgeStyle;rounded=0;orthogonalLoop=1;jettySize=auto;html=1;entryX=0;entryY=0.5;entryDx=0;entryDy=0;" edge="1" parent="1" source="hqMTRgyAmCMBQqR6_Q0m-117" target="hqMTRgyAmCMBQqR6_Q0m-72">
          <mxGeometry relative="1" as="geometry" />
        </mxCell>
        <mxCell id="hqMTRgyAmCMBQqR6_Q0m-119" value="no" style="edgeLabel;html=1;align=center;verticalAlign=middle;resizable=0;points=[];" vertex="1" connectable="0" parent="hqMTRgyAmCMBQqR6_Q0m-118">
          <mxGeometry x="0.0303" y="-1" relative="1" as="geometry">
            <mxPoint as="offset" />
          </mxGeometry>
        </mxCell>
        <mxCell id="hqMTRgyAmCMBQqR6_Q0m-121" value="yes" style="edgeStyle=orthogonalEdgeStyle;rounded=0;orthogonalLoop=1;jettySize=auto;html=1;" edge="1" parent="1" source="hqMTRgyAmCMBQqR6_Q0m-117" target="hqMTRgyAmCMBQqR6_Q0m-120">
          <mxGeometry relative="1" as="geometry">
            <Array as="points">
              <mxPoint x="515" y="2219" />
            </Array>
          </mxGeometry>
        </mxCell>
        <mxCell id="hqMTRgyAmCMBQqR6_Q0m-117" value="&lt;span style=&quot;font-size: 14px;&quot;&gt;current_time-ref_time&amp;gt;=random_time&lt;/span&gt;" style="rhombus;whiteSpace=wrap;html=1;" vertex="1" parent="1">
          <mxGeometry x="424.75" y="1974" width="180" height="200" as="geometry" />
        </mxCell>
        <mxCell id="hqMTRgyAmCMBQqR6_Q0m-124" style="edgeStyle=orthogonalEdgeStyle;rounded=0;orthogonalLoop=1;jettySize=auto;html=1;entryX=0.5;entryY=1;entryDx=0;entryDy=0;" edge="1" parent="1" source="hqMTRgyAmCMBQqR6_Q0m-120" target="hqMTRgyAmCMBQqR6_Q0m-72">
          <mxGeometry relative="1" as="geometry" />
        </mxCell>
        <mxCell id="hqMTRgyAmCMBQqR6_Q0m-120" value="IDLE = o&lt;div&gt;ref_time=milis()&lt;/div&gt;" style="whiteSpace=wrap;html=1;" vertex="1" parent="1">
          <mxGeometry x="679" y="2189" width="120" height="60" as="geometry" />
        </mxCell>
        <mxCell id="hqMTRgyAmCMBQqR6_Q0m-126" style="edgeStyle=orthogonalEdgeStyle;rounded=0;orthogonalLoop=1;jettySize=auto;html=1;entryX=0;entryY=0.5;entryDx=0;entryDy=0;" edge="1" parent="1" source="hqMTRgyAmCMBQqR6_Q0m-125" target="hqMTRgyAmCMBQqR6_Q0m-70">
          <mxGeometry relative="1" as="geometry" />
        </mxCell>
        <mxCell id="hqMTRgyAmCMBQqR6_Q0m-125" value="start" style="whiteSpace=wrap;html=1;" vertex="1" parent="1">
          <mxGeometry x="10" y="2044" width="120" height="60" as="geometry" />
        </mxCell>
        <mxCell id="hqMTRgyAmCMBQqR6_Q0m-129" style="edgeStyle=orthogonalEdgeStyle;rounded=0;orthogonalLoop=1;jettySize=auto;html=1;entryX=0.5;entryY=0;entryDx=0;entryDy=0;" edge="1" parent="1" source="hqMTRgyAmCMBQqR6_Q0m-127" target="hqMTRgyAmCMBQqR6_Q0m-105">
          <mxGeometry relative="1" as="geometry">
            <Array as="points">
              <mxPoint x="589" y="3269" />
            </Array>
          </mxGeometry>
        </mxCell>
        <mxCell id="hqMTRgyAmCMBQqR6_Q0m-127" value="ref_time=cirrent_time" style="whiteSpace=wrap;html=1;" vertex="1" parent="1">
          <mxGeometry x="529" y="3069" width="120" height="60" as="geometry" />
        </mxCell>
        <mxCell id="hqMTRgyAmCMBQqR6_Q0m-128" value="counter++" style="whiteSpace=wrap;html=1;rounded=0;" vertex="1" parent="1">
          <mxGeometry x="524" y="2859" width="120" height="60" as="geometry" />
        </mxCell>
        <mxCell id="hqMTRgyAmCMBQqR6_Q0m-130" value="clock=0" style="whiteSpace=wrap;html=1;" vertex="1" parent="1">
          <mxGeometry x="180.25" y="2919" width="116" height="50" as="geometry" />
        </mxCell>
        <mxCell id="hqMTRgyAmCMBQqR6_Q0m-135" value="" style="edgeStyle=orthogonalEdgeStyle;rounded=0;orthogonalLoop=1;jettySize=auto;html=1;" edge="1" parent="1" source="hqMTRgyAmCMBQqR6_Q0m-133" target="hqMTRgyAmCMBQqR6_Q0m-134">
          <mxGeometry relative="1" as="geometry" />
        </mxCell>
        <mxCell id="hqMTRgyAmCMBQqR6_Q0m-133" value="&lt;div&gt;&amp;nbsp;rx_clock_last = rx_clock_current;&lt;/div&gt;&lt;div&gt;&amp;nbsp; rx_clock_current = clock read&lt;/div&gt;" style="whiteSpace=wrap;html=1;" vertex="1" parent="1">
          <mxGeometry x="60" y="1199" width="183.5" height="60" as="geometry" />
        </mxCell>
        <mxCell id="hqMTRgyAmCMBQqR6_Q0m-137" value="no" style="edgeStyle=orthogonalEdgeStyle;rounded=0;orthogonalLoop=1;jettySize=auto;html=1;" edge="1" parent="1" source="hqMTRgyAmCMBQqR6_Q0m-134" target="hqMTRgyAmCMBQqR6_Q0m-136">
          <mxGeometry relative="1" as="geometry" />
        </mxCell>
        <mxCell id="hqMTRgyAmCMBQqR6_Q0m-139" value="" style="edgeStyle=orthogonalEdgeStyle;rounded=0;orthogonalLoop=1;jettySize=auto;html=1;" edge="1" parent="1" source="hqMTRgyAmCMBQqR6_Q0m-134" target="hqMTRgyAmCMBQqR6_Q0m-138">
          <mxGeometry relative="1" as="geometry" />
        </mxCell>
        <mxCell id="hqMTRgyAmCMBQqR6_Q0m-134" value="clock going down" style="rhombus;whiteSpace=wrap;html=1;" vertex="1" parent="1">
          <mxGeometry x="80.75" y="1329" width="141.75" height="130" as="geometry" />
        </mxCell>
        <mxCell id="hqMTRgyAmCMBQqR6_Q0m-136" value="END" style="whiteSpace=wrap;html=1;" vertex="1" parent="1">
          <mxGeometry x="313.375" y="1364" width="120" height="60" as="geometry" />
        </mxCell>
        <mxCell id="hqMTRgyAmCMBQqR6_Q0m-141" value="" style="edgeStyle=orthogonalEdgeStyle;rounded=0;orthogonalLoop=1;jettySize=auto;html=1;entryX=0;entryY=0.5;entryDx=0;entryDy=0;exitX=1;exitY=0.5;exitDx=0;exitDy=0;" edge="1" parent="1" source="hqMTRgyAmCMBQqR6_Q0m-148" target="hqMTRgyAmCMBQqR6_Q0m-144">
          <mxGeometry relative="1" as="geometry">
            <mxPoint x="278.2550000000001" y="1549" as="targetPoint" />
          </mxGeometry>
        </mxCell>
        <mxCell id="hqMTRgyAmCMBQqR6_Q0m-147" value="" style="edgeStyle=orthogonalEdgeStyle;rounded=0;orthogonalLoop=1;jettySize=auto;html=1;" edge="1" parent="1" source="hqMTRgyAmCMBQqR6_Q0m-138" target="hqMTRgyAmCMBQqR6_Q0m-146">
          <mxGeometry relative="1" as="geometry" />
        </mxCell>
        <mxCell id="hqMTRgyAmCMBQqR6_Q0m-138" value="save current bit" style="whiteSpace=wrap;html=1;" vertex="1" parent="1">
          <mxGeometry x="91.625" y="1519" width="120" height="60" as="geometry" />
        </mxCell>
        <mxCell id="hqMTRgyAmCMBQqR6_Q0m-145" value="no" style="edgeStyle=orthogonalEdgeStyle;rounded=0;orthogonalLoop=1;jettySize=auto;html=1;entryX=0.5;entryY=0;entryDx=0;entryDy=0;exitX=0.5;exitY=1;exitDx=0;exitDy=0;" edge="1" parent="1" source="hqMTRgyAmCMBQqR6_Q0m-142" target="hqMTRgyAmCMBQqR6_Q0m-150">
          <mxGeometry x="-0.0012" relative="1" as="geometry">
            <mxPoint as="offset" />
          </mxGeometry>
        </mxCell>
        <mxCell id="hqMTRgyAmCMBQqR6_Q0m-153" value="yes" style="edgeStyle=orthogonalEdgeStyle;rounded=0;orthogonalLoop=1;jettySize=auto;html=1;" edge="1" parent="1" source="hqMTRgyAmCMBQqR6_Q0m-142" target="hqMTRgyAmCMBQqR6_Q0m-152">
          <mxGeometry relative="1" as="geometry" />
        </mxCell>
        <mxCell id="hqMTRgyAmCMBQqR6_Q0m-142" value="rx_ounter=8" style="rhombus;whiteSpace=wrap;html=1;" vertex="1" parent="1">
          <mxGeometry x="614.5" y="1629" width="111" height="110" as="geometry" />
        </mxCell>
        <mxCell id="hqMTRgyAmCMBQqR6_Q0m-151" value="" style="edgeStyle=orthogonalEdgeStyle;rounded=0;orthogonalLoop=1;jettySize=auto;html=1;entryX=0.5;entryY=0;entryDx=0;entryDy=0;exitX=0.5;exitY=1;exitDx=0;exitDy=0;" edge="1" parent="1" source="hqMTRgyAmCMBQqR6_Q0m-144" target="hqMTRgyAmCMBQqR6_Q0m-142">
          <mxGeometry relative="1" as="geometry" />
        </mxCell>
        <mxCell id="hqMTRgyAmCMBQqR6_Q0m-144" value="rx_data or current bit,&lt;div&gt;current bit=0&lt;/div&gt;" style="whiteSpace=wrap;html=1;" vertex="1" parent="1">
          <mxGeometry x="610" y="1519" width="120" height="60" as="geometry" />
        </mxCell>
        <mxCell id="hqMTRgyAmCMBQqR6_Q0m-149" value="" style="edgeStyle=orthogonalEdgeStyle;rounded=0;orthogonalLoop=1;jettySize=auto;html=1;" edge="1" parent="1" source="hqMTRgyAmCMBQqR6_Q0m-146" target="hqMTRgyAmCMBQqR6_Q0m-148">
          <mxGeometry relative="1" as="geometry" />
        </mxCell>
        <mxCell id="hqMTRgyAmCMBQqR6_Q0m-146" value="&lt;br&gt;&lt;span style=&quot;color: rgb(0, 0, 0); font-family: Helvetica; font-size: 12px; font-style: normal; font-variant-ligatures: normal; font-variant-caps: normal; font-weight: 400; letter-spacing: normal; orphans: 2; text-align: center; text-indent: 0px; text-transform: none; widows: 2; word-spacing: 0px; -webkit-text-stroke-width: 0px; white-space: normal; background-color: rgb(251, 251, 251); text-decoration-thickness: initial; text-decoration-style: initial; text-decoration-color: initial; display: inline !important; float: none;&quot;&gt;rotate right current bit rx_counter times&lt;/span&gt;&lt;div&gt;&lt;br&gt;&lt;/div&gt;" style="whiteSpace=wrap;html=1;" vertex="1" parent="1">
          <mxGeometry x="264.505" y="1519" width="120" height="60" as="geometry" />
        </mxCell>
        <mxCell id="hqMTRgyAmCMBQqR6_Q0m-148" value="&lt;span style=&quot;color: rgb(0, 0, 0); font-family: Helvetica; font-size: 12px; font-style: normal; font-variant-ligatures: normal; font-variant-caps: normal; font-weight: 400; letter-spacing: normal; orphans: 2; text-align: center; text-indent: 0px; text-transform: none; widows: 2; word-spacing: 0px; -webkit-text-stroke-width: 0px; white-space: normal; background-color: rgb(251, 251, 251); text-decoration-thickness: initial; text-decoration-style: initial; text-decoration-color: initial; display: inline !important; float: none;&quot;&gt;rx_counter++&lt;/span&gt;" style="whiteSpace=wrap;html=1;" vertex="1" parent="1">
          <mxGeometry x="433.375" y="1519" width="120" height="60" as="geometry" />
        </mxCell>
        <mxCell id="hqMTRgyAmCMBQqR6_Q0m-150" value="END" style="whiteSpace=wrap;html=1;" vertex="1" parent="1">
          <mxGeometry x="610" y="1819" width="120" height="60" as="geometry" />
        </mxCell>
        <mxCell id="hqMTRgyAmCMBQqR6_Q0m-152" value="print rx_data as char,&lt;div&gt;rx_data=0&lt;/div&gt;" style="whiteSpace=wrap;html=1;" vertex="1" parent="1">
          <mxGeometry x="409" y="1654" width="120" height="60" as="geometry" />
        </mxCell>
      </root>
    </mxGraphModel>
  </diagram>
</mxfile>
